<?xml version="1.0" encoding="UTF-8" standalone="no"?>
<!-- Created with Inkscape (http://www.inkscape.org/) -->

<svg
   xmlns:dc="http://purl.org/dc/elements/1.1/"
   xmlns:cc="http://creativecommons.org/ns#"
   xmlns:rdf="http://www.w3.org/1999/02/22-rdf-syntax-ns#"
   xmlns:svg="http://www.w3.org/2000/svg"
   xmlns="http://www.w3.org/2000/svg"
   xmlns:sodipodi="http://sodipodi.sourceforge.net/DTD/sodipodi-0.dtd"
   xmlns:inkscape="http://www.inkscape.org/namespaces/inkscape"
   width="274.17273mm"
   height="194.15456mm"
   viewBox="0 0 971.47818 687.94921"
   id="svg2"
   version="1.1"
   inkscape:version="0.91 r13725"
   sodipodi:docname="fo-dicom-logo-2.svg"
   inkscape:export-filename="C:\Users\richo\Dropbox\fo-dicom-logo-2.png"
   inkscape:export-xdpi="46.32"
   inkscape:export-ydpi="46.32">
  <defs
     id="defs4" />
  <sodipodi:namedview
     id="base"
     pagecolor="#ffffff"
     bordercolor="#666666"
     borderopacity="1.0"
     inkscape:pageopacity="0.0"
     inkscape:pageshadow="2"
     inkscape:zoom="1.7588508"
     inkscape:cx="485.73909"
     inkscape:cy="343.97461"
     inkscape:document-units="px"
     inkscape:current-layer="layer1"
     showgrid="false"
     inkscape:window-width="2560"
     inkscape:window-height="1379"
     inkscape:window-x="1912"
     inkscape:window-y="-8"
     inkscape:window-maximized="1"
     fit-margin-top="0"
     fit-margin-left="0"
     fit-margin-bottom="0"
     fit-margin-right="0" />
  <metadata
     id="metadata7">
    <rdf:RDF>
      <cc:Work
         rdf:about="">
        <dc:format>image/svg+xml</dc:format>
        <dc:type
           rdf:resource="http://purl.org/dc/dcmitype/StillImage" />
        <dc:title></dc:title>
      </cc:Work>
    </rdf:RDF>
  </metadata>
  <g
     inkscape:label="Layer 1"
     inkscape:groupmode="layer"
     id="layer1"
     transform="translate(95.560387,-120.03458)">
    <rect
       id="rect3351"
       width="971.47821"
       height="687.94922"
       x="-95.560387"
       y="120.03458"
       style="fill:#1e8a67;fill-opacity:1" />
    <path
       inkscape:connector-curvature="0"
       style="opacity:1;fill:#0abf7e;fill-opacity:1"
       d="m 138.10623,182.64142 c -9.6365,0 -17.39257,7.75802 -17.39257,17.39453 l 0,329.49414 c 0,9.63651 7.75607,17.39453 17.39257,17.39453 l 20.33594,0 0,41.62891 c 0,23.08341 0.3621,41.82006 0.80469,41.63672 0.4426,-0.18333 20.48692,-19.00899 44.54297,-41.83399 l 43.66601,-41.43164 365.09571,0 c 9.6365,0 17.39453,-7.75802 17.39453,-17.39453 l 0,-329.49414 c 0,-9.63651 -7.75803,-17.39453 -17.39453,-17.39453 l -474.44532,0 z"
       id="rect4149" />
    <path
       style="opacity:1;fill:#ffffff;fill-opacity:1"
       d="m 362.78202,200.52423 c -1.94685,0.0117 -3.89355,0.0539 -5.83985,0.125 -22.19411,0.8103 -38.96945,4.62923 -56.11523,12.77735 -30.78656,14.63058 -53.44259,46.75763 -61.57813,87.32226 -2.92127,14.56573 -2.86842,36.39645 0.1211,50.59961 7.84475,37.27041 31.58196,63.20129 65.86718,71.95508 21.01841,5.36648 40.40303,4.94279 73.46485,-1.60742 12.67433,-2.51104 19.09071,-3.38781 19.77539,-2.70313 0.68469,0.68469 0.18276,2.82745 -1.54688,6.60547 -5.83267,12.74023 -5.66034,21.82807 0.65625,34.68945 3.84065,7.82005 18.34394,22.73525 30.35547,31.21875 17.65076,12.46639 45.70507,27.84961 50.78906,27.84961 1.6693,0 4.93028,-1.11239 7.24805,-2.4707 4.64794,-2.72387 9.14441,-9.0322 12.45117,-17.4707 2.83392,-7.23184 6.15561,-21.31724 5.24024,-22.22266 -0.56436,-0.55823 -32.1834,-12.40844 -53.55664,-20.07226 -2.41585,-0.86627 -2.73058,-1.39507 -2.16797,-3.63672 0.36212,-1.44278 0.80982,-2.77467 0.99609,-2.96094 0.18628,-0.18627 12.80431,4.22134 28.03906,9.79492 15.23476,5.57358 27.91892,9.91311 28.1875,9.64453 0.26858,-0.26858 0.50194,-3.77702 0.51954,-7.79687 0.0255,-5.8193 -0.73826,-9.65229 -3.74805,-18.8086 -3.48822,-10.61174 -3.78636,-12.42688 -3.86133,-23.5 -0.0447,-6.6 0.29978,-16.05 0.76563,-21 1.02182,-10.85759 0.18261,-13.40054 -7.91797,-23.97656 -8.40217,-10.96977 -7.77008,-14.15903 4.22656,-21.34375 7.81357,-4.6795 14.77634,-19.58331 17.33984,-37.11523 5.55554,-37.99455 -19.23456,-74.67156 -65.6582,-97.14454 -25.69801,-12.44 -54.85,-18.92671 -84.05273,-18.75195 z m 14.94726,235.83008 -4.89453,0.57422 c -2.69151,0.31594 -9.80167,1.25415 -15.80078,2.08398 -6.61626,0.9152 -16.21646,1.39553 -24.40235,1.22071 l -13.49609,-0.28907 -1.71875,8.45703 c -2.6381,12.96792 -7.73649,24.09086 -18.2207,39.75782 -2.6877,4.01634 -4.74403,7.72139 -4.57031,8.23437 0.17373,0.51298 10.65144,8.13713 23.28515,16.94336 l 22.9707,16.01172 7.35547,-11.24609 c 4.04509,-6.18554 10.23151,-17.0961 13.74805,-24.2461 9.073,-18.44764 13.48257,-33.17464 15.08008,-50.36328 z"
       id="rect4152"
       inkscape:connector-curvature="0"
       sodipodi:nodetypes="ccssssssssssssssscsssssssssscccscccscsccscc" />
    <text
       xml:space="preserve"
       style="font-style:normal;font-variant:normal;font-weight:bold;font-stretch:normal;font-size:150px;line-height:125%;font-family:'Bitstream Vera Sans';-inkscape-font-specification:'Bitstream Vera Sans, Bold';text-align:start;letter-spacing:0px;word-spacing:0px;writing-mode:lr-tb;text-anchor:start;fill:#000000;fill-opacity:1;stroke:none;stroke-width:1px;stroke-linecap:butt;stroke-linejoin:miter;stroke-opacity:1"
       x="4.6203995"
       y="711.35077"
       id="text4174"
       sodipodi:linespacing="125%"><tspan
         sodipodi:role="line"
         id="tspan4176"
         x="4.6203995"
         y="711.35077">fo-dicom</tspan></text>
  </g>
</svg>
